<?xml version="1.0" standalone="no"?>
<!DOCTYPE svg PUBLIC "-//W3C//DTD SVG 20010904//EN"
 "http://www.w3.org/TR/2001/REC-SVG-20010904/DTD/svg10.dtd">
<svg version="1.0" xmlns="http://www.w3.org/2000/svg"
 width="313.000000pt" height="106.000000pt" viewBox="0 0 313.000000 106.000000"
 preserveAspectRatio="xMidYMid meet">

<g transform="translate(0.000000,106.000000) scale(0.100000,-0.100000)"
fill="#000000" stroke="none">
<path d="M2608 835 c-23 -51 19 -90 82 -75 27 6 36 34 26 76 -6 21 -12 24 -51
24 -39 0 -47 -4 -57 -25z"/>
<path d="M228 819 c-86 -45 -109 -164 -48 -242 12 -14 58 -44 104 -67 92 -46
114 -71 99 -117 -7 -21 -20 -31 -52 -42 -38 -12 -48 -11 -99 6 -31 11 -65 23
-74 27 -16 7 -18 2 -18 -42 0 -49 1 -50 41 -66 140 -56 287 -6 319 109 27 96
-9 154 -134 217 -86 43 -105 60 -106 94 0 49 65 73 131 49 79 -29 76 -29 81 3
10 68 -28 92 -141 92 -46 -1 -77 -7 -103 -21z"/>
<path d="M1128 689 c-71 -11 -102 -30 -106 -62 -6 -53 2 -59 50 -37 52 24 140
27 158 5 6 -8 13 -29 13 -47 l2 -33 -83 -6 c-72 -6 -88 -10 -119 -36 -77 -62
-62 -171 28 -207 54 -22 88 -20 142 7 43 22 46 23 50 5 4 -14 15 -18 46 -18
l41 0 0 166 c0 183 -8 217 -58 246 -35 20 -104 27 -164 17z m120 -275 c6 -60
-85 -108 -130 -67 -22 19 -24 56 -4 72 21 18 66 30 101 28 26 -2 30 -6 33 -33z"/>
<path d="M2000 688 c-74 -12 -100 -30 -100 -72 0 -18 3 -35 6 -38 3 -4 24 2
47 13 51 23 139 25 157 4 6 -8 13 -29 13 -47 l2 -33 -83 -6 c-72 -6 -88 -10
-120 -36 -72 -59 -64 -159 18 -200 56 -29 95 -29 153 0 43 22 46 23 50 5 4
-14 15 -18 46 -18 l41 0 0 166 c0 183 -8 217 -58 246 -36 20 -105 27 -172 16z
m128 -274 c6 -60 -91 -110 -132 -68 -20 19 -21 58 -2 73 21 18 66 30 101 28
26 -2 30 -6 33 -33z"/>
<path d="M2543 690 c-18 -4 -48 -19 -67 -34 l-35 -26 -3 27 c-3 25 -7 28 -43
28 l-40 0 0 -210 0 -210 50 0 50 0 3 142 3 142 30 25 c42 36 75 34 111 -7 0
-1 4 -69 7 -152 l6 -150 50 0 50 0 3 142 3 142 30 25 c42 36 75 34 111 -7 0
-1 4 -69 7 -152 l6 -150 50 0 50 0 0 165 c0 139 -3 170 -18 197 -25 47 -59 65
-118 65 -41 0 -60 -6 -96 -31 l-45 -32 -19 25 c-16 21 -79 49 -99 45 -3 -1
-20 -5 -37 -9z"/>
<path d="M546 681 c-3 -5 25 -100 62 -212 l67 -204 63 -3 c36 -2 69 2 77 8 18
15 139 386 132 405 -8 19 -80 21 -95 2 -6 -6 -30 -76 -53 -155 -24 -78 -46
-139 -50 -135 -4 5 -26 71 -50 148 -23 77 -47 143 -53 147 -15 11 -94 10 -100
-1z"/>
<path d="M1433 678 c-8 -10 7 -61 58 -198 38 -102 74 -194 79 -205 8 -15 5
-35 -15 -84 -34 -83 -29 -95 35 -89 28 3 52 7 54 9 12 12 179 519 180 544 1
28 -2 30 -40 33 -25 2 -45 -2 -51 -10 -6 -7 -29 -73 -52 -147 -23 -73 -44
-131 -46 -129 -2 2 -26 67 -53 143 l-49 140 -45 3 c-28 2 -49 -2 -55 -10z"/>
</g>
</svg>
