<?xml version="1.0" standalone="no"?>
<!DOCTYPE svg PUBLIC "-//W3C//DTD SVG 20010904//EN"
 "http://www.w3.org/TR/2001/REC-SVG-20010904/DTD/svg10.dtd">
<svg version="1.0" xmlns="http://www.w3.org/2000/svg"
 width="505.000000pt" height="181.000000pt" viewBox="0 0 505.000000 181.000000"
 preserveAspectRatio="xMidYMid meet">
<metadata>
Created by potrace 1.16, written by Peter Selinger 2001-2019
</metadata>
<g transform="translate(0.000000,181.000000) scale(0.100000,-0.100000)"
fill="#000000" stroke="none">
<path d="M4246 1434 c-34 -34 -32 -125 4 -144 10 -5 43 -10 73 -10 57 0 78 13
91 57 9 30 -10 99 -30 107 -33 12 -122 6 -138 -10z"/>
<path d="M450 1411 c-130 -42 -192 -125 -193 -256 -1 -125 57 -195 227 -275
145 -68 184 -118 153 -193 -35 -84 -177 -95 -314 -26 -34 17 -66 28 -72 24 -6
-3 -11 -35 -11 -70 0 -53 4 -68 22 -85 36 -33 140 -60 232 -60 210 0 331 96
344 270 3 53 0 76 -18 118 -30 69 -73 104 -214 175 -159 80 -198 134 -146 200
43 54 135 59 238 12 30 -14 60 -25 68 -25 17 0 29 80 17 117 -16 49 -89 77
-208 80 -55 1 -111 -1 -125 -6z"/>
<path d="M1790 1166 c-55 -16 -102 -39 -119 -60 -7 -8 -11 -35 -9 -63 4 -60
19 -64 98 -29 70 32 155 43 204 26 43 -14 66 -52 66 -108 l0 -39 -103 -6
c-178 -10 -272 -62 -296 -164 -24 -98 18 -192 104 -233 38 -19 59 -21 129 -19
78 4 88 7 138 41 l53 38 5 -33 c5 -31 6 -32 63 -35 35 -2 64 2 73 9 11 9 14
51 14 213 -1 333 -18 399 -117 447 -40 19 -66 24 -153 26 -64 1 -123 -3 -150
-11z m240 -444 c0 -64 -13 -84 -77 -116 -40 -20 -76 -20 -112 -1 -32 16 -41
33 -41 79 0 62 57 93 173 95 l57 1 0 -58z"/>
<path d="M3210 1166 c-55 -16 -102 -39 -119 -60 -7 -8 -11 -35 -9 -63 4 -60
19 -64 98 -29 70 32 155 43 204 26 43 -14 66 -52 66 -108 l0 -39 -103 -6
c-178 -10 -272 -62 -296 -164 -24 -98 18 -192 104 -233 38 -19 59 -21 129 -19
78 4 88 7 138 41 l53 38 5 -33 c5 -31 6 -32 63 -35 35 -2 64 2 73 9 11 9 14
51 14 213 -1 333 -18 399 -117 447 -40 19 -66 24 -153 26 -64 1 -123 -3 -150
-11z m240 -444 c0 -64 -13 -84 -77 -116 -40 -20 -76 -20 -112 -1 -32 16 -41
33 -41 79 0 62 57 93 173 95 l57 1 0 -58z"/>
<path d="M4091 1164 c-19 -8 -54 -30 -78 -50 -47 -38 -45 -39 -55 31 -3 16
-12 21 -52 23 -28 2 -60 1 -73 -3 l-23 -5 0 -328 c0 -242 3 -331 12 -340 12
-12 124 -17 152 -6 14 5 16 35 16 229 l0 222 44 41 c70 65 126 67 170 9 20
-27 21 -43 24 -260 2 -166 6 -234 15 -239 14 -9 129 -11 151 -2 14 5 16 35 16
229 l0 222 44 41 c70 65 126 67 170 9 20 -27 21 -43 24 -260 2 -164 7 -234 15
-239 22 -14 144 -9 157 7 17 20 9 496 -10 545 -35 94 -102 140 -205 140 -71 0
-126 -22 -183 -74 l-40 -36 -27 36 c-15 20 -46 45 -69 55 -50 23 -147 24 -195
3z"/>
<path d="M907 1163 c-4 -3 -7 -16 -7 -27 0 -36 201 -630 218 -644 16 -12 186
-18 216 -6 14 6 226 619 226 656 0 22 -21 28 -95 28 -38 0 -67 -5 -73 -12 -5
-7 -43 -122 -83 -255 -40 -134 -74 -241 -76 -239 -2 2 -38 113 -79 247 -42
134 -81 247 -88 251 -14 10 -150 10 -159 1z"/>
<path d="M2333 1164 c-7 -3 -13 -14 -13 -25 0 -20 198 -556 231 -625 l19 -41
-40 -104 c-44 -113 -48 -134 -24 -143 25 -10 108 -7 142 5 33 11 25 -9 262
691 86 253 87 248 -21 248 -43 0 -71 -4 -76 -12 -4 -7 -40 -114 -80 -238 -39
-124 -74 -218 -77 -210 -3 8 -41 114 -84 235 l-77 220 -75 2 c-41 1 -81 -1
-87 -3z"/>
</g>
</svg>
